<?xml version="1.0" encoding="UTF-8" standalone="no"?>
<svg
   width="56"
   height="56"
   viewBox="0 0 56 56"
   fill="none"
   version="1.1"
   id="svg2"
   xmlns="http://www.w3.org/2000/svg"
   xmlns:svg="http://www.w3.org/2000/svg">
  <defs
     id="defs2" />
  <path
     d="M 0,56 V 0 h 56 v 56 z"
     fill="#000000"
     id="path1" />
  <path
     d="m 36.6147,41.9176 c 1.0765,1.7484 2.2463,3.4238 4.7243,3.4238 2.0813,0 3.1733,-1.0345 3.1733,-2.4656 0,-1.7127 -1.1293,-2.3209 -3.4191,-3.318 L 39.8378,39.0227 C 36.215,37.4858 33.8054,35.56 33.8054,31.4923 c 0,-3.7489 2.87,-6.6018 7.3547,-6.6018 3.1935,0 5.488,1.106 7.1431,4.0024 l -3.9107,2.4998 c -0.8602,-1.5369 -1.7904,-2.142 -3.2324,-2.142 -1.4716,0 -2.4034,0.9287 -2.4034,2.142 0,1.4995 0.9334,2.1062 3.0878,3.0349 l 1.2553,0.5351 c 4.27,1.8184 6.678,3.6758 6.678,7.8509 0,4.4986 -3.5528,6.9642 -8.3222,6.9642 -4.6651,0 -7.3142,-2.3411 -8.7889,-5.2391 z m -18.0226,0.1275 c 0.7871,1.4094 1.9833,2.4936 3.7037,2.4936 1.6458,0 2.5932,-0.6502 2.5932,-3.178 V 24.8889 h 5.1846 v 17.2682 c 0,5.2376 -3.038,7.6207 -7.4744,7.6207 -4.0087,0 -6.902,-2.716 -8.0811,-5.2391 z"
     fill="#ffffff"
     id="path2" />
</svg>
