<?xml version="1.0" encoding="UTF-8" standalone="no"?>
<svg
   width="20"
   height="20"
   viewBox="0 0 20 20"
   fill="none"
   version="1.1"
   id="svg1"
   xmlns="http://www.w3.org/2000/svg"
   xmlns:svg="http://www.w3.org/2000/svg">
  <defs
     id="defs1" />
  <path
     style="stroke-linecap:round;stroke-linejoin:round;-inkscape-stroke:none"
     d="m 10,1.5 a 1,1 0 0 0 -1,1 v 7.585938 L 6.5410156,7.6269531 a 1,1 0 0 0 -1.4140625,0 1,1 0 0 0 0,1.4140625 l 4.1660157,4.1660154 a 1,1 0 0 0 1.4140622,0 l 4.166016,-4.1660154 a 1,1 0 0 0 0,-1.4140625 1,1 0 0 0 -1.414063,0 L 11,10.085938 V 2.5 a 1,1 0 0 0 -1,-1 z m -7.5,10 a 1,1 0 0 0 -1,1 v 1 c 0,1.400099 -0.051878,2.240504 0.3808594,3.089844 0.3355169,0.658463 0.8709218,1.193811 1.5292969,1.529297 C 4.259488,18.551922 5.0998714,18.5 6.5,18.5 h 7 c 1.400099,0 2.240495,0.05192 3.089844,-0.380859 0.6584,-0.335499 1.193798,-0.870897 1.529297,-1.529297 C 18.551915,15.740495 18.5,14.900099 18.5,13.5 v -1 a 1,1 0 0 0 -1,-1 1,1 0 0 0 -1,1 v 1 c 0,1.400099 -0.05184,1.961391 -0.164063,2.181641 -0.1439,0.282398 -0.371898,0.510396 -0.654296,0.654296 C 15.461391,16.448163 14.900099,16.5 13.5,16.5 h -7 C 5.0998714,16.5 4.5385865,16.448155 4.3183594,16.335937 4.0359354,16.192024 3.8079251,15.963976 3.6640625,15.681641 3.5518409,15.461382 3.5,14.900099 3.5,13.5 v -1 a 1,1 0 0 0 -1,-1 z"
     id="path1" />
</svg>
